<svg data-v-423bf9ae="" xmlns="http://www.w3.org/2000/svg" viewBox="0 0 574 90" class="iconLeft"><!----><!----><!----><g data-v-423bf9ae="" id="791168df-cf6f-4570-b969-d3f892c43708" fill="#EBE3D5" transform="matrix(4.773269805623416,0,0,4.773269805623416,108.00287808848918,6.980906169483944)"><path d="M3.35 4.37C1.54 4.37 0.60 5.11 0.60 6.37C0.60 8.93 5.26 7.84 5.26 9.59C5.26 10.54 4.05 10.70 3.47 10.70C2.11 10.70 1.58 10.00 1.51 9.28L0.42 9.28C0.49 10.51 1.51 11.59 3.46 11.59C5.19 11.59 6.31 10.85 6.31 9.49C6.31 6.86 1.65 7.95 1.65 6.27C1.65 5.59 2.23 5.26 3.32 5.26C4.49 5.26 4.94 5.75 5.03 6.36L6.09 6.36C5.96 5.33 5.19 4.37 3.35 4.37ZM10.78 10.64C9.37 10.64 8.46 9.65 8.30 8.40L14.17 8.40L14.17 7.98C14.17 5.98 12.84 4.37 10.70 4.37C8.55 4.37 7.22 5.98 7.22 7.98C7.22 9.98 8.62 11.59 10.77 11.59C12.43 11.59 13.47 10.72 13.96 9.46L12.81 9.46C12.43 10.16 11.76 10.64 10.78 10.64ZM10.70 5.32C12.04 5.32 12.88 6.23 13.08 7.42L8.32 7.42C8.51 6.23 9.35 5.32 10.70 5.32ZM19.08 4.37C17.35 4.37 16.65 5.73 16.51 6.20L16.51 4.48L15.46 4.48L15.46 11.48L16.51 11.48L16.51 8.40C16.51 6.86 17.46 5.42 19.03 5.42L19.15 5.42L19.15 4.37ZM23.23 10.64C21.81 10.64 20.90 9.65 20.75 8.40L26.61 8.40L26.61 7.98C26.61 5.98 25.28 4.37 23.14 4.37C21 4.37 19.67 5.98 19.67 7.98C19.67 9.98 21.07 11.59 23.21 11.59C24.88 11.59 25.91 10.72 26.40 9.46L25.26 9.46C24.88 10.16 24.21 10.64 23.23 10.64ZM23.14 5.32C24.49 5.32 25.33 6.23 25.52 7.42L20.76 7.42C20.96 6.23 21.80 5.32 23.14 5.32ZM27.90 4.48L27.90 11.48L28.95 11.48L28.95 7.45C28.95 6.19 29.90 5.32 31.07 5.32C32.21 5.32 33.03 6.16 33.03 7.43L33.03 11.48L34.08 11.48L34.08 7.41C34.08 5.42 32.72 4.37 31.28 4.37C30.14 4.37 29.46 4.90 28.95 5.57L28.95 4.48ZM35.83 11.48L36.88 11.48L36.88 4.48L35.83 4.48ZM35.78 1.93L35.78 3.30L36.92 3.30L36.92 1.93ZM40.50 11.48L40.50 5.40L42.11 5.40L42.11 4.48L40.50 4.48L40.50 1.97L39.45 1.97L39.45 4.48L38.02 4.48L38.02 5.40L39.45 5.40L39.45 11.48ZM49.27 4.48L48.12 4.48L45.82 10.22L43.57 4.48L42.41 4.48L45.26 11.38L43.99 14.25L45.12 14.25ZM55.64 4.37C53.83 4.37 52.89 5.11 52.89 6.37C52.89 8.93 57.55 7.84 57.55 9.59C57.55 10.54 56.34 10.70 55.76 10.70C54.40 10.70 53.87 10.00 53.80 9.28L52.71 9.28C52.78 10.51 53.80 11.59 55.75 11.59C57.48 11.59 58.60 10.85 58.60 9.49C58.60 6.86 53.94 7.95 53.94 6.27C53.94 5.59 54.52 5.26 55.61 5.26C56.78 5.26 57.23 5.75 57.32 6.36L58.38 6.36C58.25 5.33 57.48 4.37 55.64 4.37ZM62.99 4.37C60.84 4.37 59.51 5.98 59.51 7.98C59.51 9.98 60.84 11.59 62.99 11.59C65.13 11.59 66.46 9.98 66.46 7.98C66.46 5.98 65.13 4.37 62.99 4.37ZM62.99 10.64C61.43 10.64 60.56 9.42 60.56 7.98C60.56 6.54 61.43 5.32 62.99 5.32C64.54 5.32 65.41 6.54 65.41 7.98C65.41 9.42 64.54 10.64 62.99 10.64ZM73.95 11.48L73.95 4.48L72.90 4.48L72.90 8.51C72.90 9.77 71.95 10.64 70.78 10.64C69.64 10.64 68.82 9.80 68.82 8.53L68.82 4.48L67.77 4.48L67.77 8.55C67.77 10.54 69.13 11.59 70.57 11.59C71.71 11.59 72.39 11.06 72.90 10.39L72.90 11.48ZM75.77 4.48L75.77 11.48L76.82 11.48L76.82 7.45C76.82 6.19 77.77 5.32 78.93 5.32C80.08 5.32 80.89 6.16 80.89 7.43L80.89 11.48L81.94 11.48L81.94 7.41C81.94 5.42 80.58 4.37 79.14 4.37C78.01 4.37 77.32 4.90 76.82 5.57L76.82 4.48ZM86.65 4.37C84.60 4.37 83.26 5.98 83.26 7.98C83.26 9.98 84.60 11.59 86.65 11.59C87.81 11.59 88.63 11.12 89.15 10.36L89.15 11.48L90.20 11.48L90.20 1.68L89.15 1.68L89.15 5.61C88.63 4.86 87.81 4.37 86.65 4.37ZM86.79 10.64C85.23 10.64 84.31 9.42 84.31 7.98C84.31 6.54 85.23 5.32 86.79 5.32C88.34 5.32 89.21 6.54 89.21 7.98C89.21 9.42 88.34 10.64 86.79 10.64ZM94.46 4.37C92.65 4.37 91.71 5.11 91.71 6.37C91.71 8.93 96.38 7.84 96.38 9.59C96.38 10.54 95.16 10.70 94.58 10.70C93.23 10.70 92.69 10.00 92.62 9.28L91.53 9.28C91.60 10.51 92.62 11.59 94.57 11.59C96.31 11.59 97.43 10.85 97.43 9.49C97.43 6.86 92.76 7.95 92.76 6.27C92.76 5.59 93.34 5.26 94.43 5.26C95.61 5.26 96.05 5.75 96.14 6.36L97.20 6.36C97.08 5.33 96.31 4.37 94.46 4.37Z"></path></g><!----><g data-v-423bf9ae="" id="5f79b1dc-cef5-4a19-a228-fe72de4fca79" transform="matrix(2.812499329447906,0,0,2.812499329447906,0.9961751708578745,1.0000000000000426)" stroke="none" fill="#EBE3D5"><path d="M5.78 16L16 5.78 26.22 16 16 26.22z"></path><path d="M32 3.714A3.714 3.714 0 0028.286 0c-1.659 0-3.047 1.095-3.524 2.596H7.238C6.761 1.095 5.373 0 3.714 0A3.714 3.714 0 000 3.714a3.7 3.7 0 002.597 3.524v17.524A3.7 3.7 0 000 28.286 3.714 3.714 0 003.714 32c1.506 0 2.795-.9 3.378-2.188h17.816A3.707 3.707 0 0028.286 32a3.709 3.709 0 001.526-7.093V7.092A3.707 3.707 0 0032 3.714zm-3.188 20.911c-.173-.025-.346-.053-.526-.053a3.714 3.714 0 00-3.714 3.714c0 .18.028.353.053.526H7.375c.025-.173.053-.346.053-.526a3.714 3.714 0 00-3.714-3.714c-.04 0-.077.01-.117.012V7.416c.04.001.077.012.117.012a3.714 3.714 0 003.714-3.714c0-.04-.011-.078-.012-.117h17.168c-.001.04-.012.077-.012.117a3.714 3.714 0 003.714 3.714c.18 0 .352-.028.526-.053v17.25z"></path></g><!----></svg>